<svg xmlns="http://www.w3.org/2000/svg" height="340pt" version="1.1" viewBox="-28 0 340 340.17675" width="340pt">
<g id="surface1">
<path d="M 74.394531 241.804688 C 74.054688 241.109375 73.75 240.382812 73.425781 239.675781 C 72.464844 237.59375 71.539062 235.480469 70.65625 233.316406 C 70.265625 232.351562 69.886719 231.378906 69.523438 230.398438 C 68.722656 228.324219 67.957031 226.210938 67.226562 224.0625 C 66.910156 223.140625 66.585938 222.226562 66.289062 221.296875 C 65.335938 218.335938 64.429688 215.332031 63.613281 212.265625 C 63.613281 212.167969 63.554688 212.078125 63.535156 211.980469 C 62.683594 208.785156 61.933594 205.523438 61.238281 202.222656 C 61.050781 201.324219 60.886719 200.40625 60.707031 199.492188 C 60.230469 197.050781 59.789062 194.585938 59.398438 192.125 C 59.234375 191.074219 59.074219 190.019531 58.921875 188.953125 C 58.796875 188.074219 58.644531 187.214844 58.523438 186.328125 C 48.953125 190.042969 40.253906 195.699219 32.984375 202.949219 C 20.539062 215.351562 12.957031 231.8125 11.621094 249.335938 L 78.273438 249.335938 C 76.910156 246.90625 75.628906 244.382812 74.394531 241.804688 Z M 74.394531 241.804688 " style=" stroke:none;fill-rule:nonzero;fill:rgb(100%,85.490196%,26.666667%);fill-opacity:1;" />
<path d="M 212.816406 233.3125 C 211.933594 235.480469 211.003906 237.601562 210.039062 239.6875 C 209.714844 240.386719 209.410156 241.113281 209.082031 241.804688 C 207.839844 244.382812 206.558594 246.90625 205.207031 249.335938 L 271.84375 249.335938 C 269.585938 221.078125 251.375 196.601562 224.960938 186.320312 C 224.851562 187.144531 224.703125 187.957031 224.585938 188.785156 C 224.421875 189.949219 224.246094 191.105469 224.0625 192.269531 C 223.6875 194.628906 223.269531 196.972656 222.816406 199.296875 C 222.621094 200.304688 222.445312 201.3125 222.25 202.308594 C 221.558594 205.566406 220.816406 208.792969 219.984375 211.941406 C 219.933594 212.125 219.875 212.300781 219.824219 212.507812 C 219.027344 215.488281 218.160156 218.417969 217.222656 221.292969 C 216.917969 222.238281 216.589844 223.164062 216.273438 224.097656 C 215.539062 226.238281 214.785156 228.34375 214.007812 230.414062 C 213.585938 231.378906 213.207031 232.335938 212.816406 233.3125 Z M 212.816406 233.3125 " style=" stroke:none;fill-rule:nonzero;fill:rgb(100%,85.490196%,26.666667%);fill-opacity:1;" />
<path d="M 88.46875 244.335938 C 89.941406 246.945312 91.476562 249.445312 93.082031 251.84375 C 97.230469 258.15625 102.152344 263.917969 107.738281 268.996094 L 107.738281 255 C 107.738281 251.871094 110.273438 249.335938 113.402344 249.335938 L 170.066406 249.335938 C 173.195312 249.335938 175.734375 251.871094 175.734375 255 L 175.734375 268.996094 C 181.324219 263.917969 186.253906 258.15625 190.402344 251.84375 C 204.265625 229.601562 212.523438 204.320312 214.464844 178.179688 C 215.082031 171.703125 215.398438 165.144531 215.398438 158.671875 C 215.398438 116.933594 202.992188 78.09375 182.214844 54.78125 C 181.785156 54.300781 181.4375 53.746094 181.195312 53.148438 L 179.054688 51.007812 L 104.417969 51.007812 L 102.273438 53.148438 C 102.03125 53.746094 101.6875 54.300781 101.253906 54.78125 C 80.476562 78.09375 68.070312 116.933594 68.070312 158.671875 C 68.070312 165.144531 68.390625 171.703125 69.007812 178.1875 C 70.878906 201.339844 77.503906 223.859375 88.46875 244.335938 Z M 141.734375 96.339844 C 160.511719 96.339844 175.734375 111.5625 175.734375 130.339844 C 175.734375 149.117188 160.511719 164.339844 141.734375 164.339844 C 122.957031 164.339844 107.738281 149.117188 107.738281 130.339844 C 107.753906 111.570312 122.964844 96.359375 141.734375 96.339844 Z M 141.734375 96.339844 " style=" stroke:none;fill-rule:nonzero;fill:rgb(0%,68.235294%,93.72549%);fill-opacity:1;" />
<path d="M 141.734375 13.6875 L 115.75 39.675781 L 167.722656 39.675781 Z M 141.734375 13.6875 " style=" stroke:none;fill-rule:nonzero;fill:rgb(100%,85.490196%,26.666667%);fill-opacity:1;" />
<path d="M 119.070312 280.386719 L 119.070312 283.335938 L 164.402344 283.335938 L 164.402344 260.667969 L 119.070312 260.667969 Z M 119.070312 280.386719 " style=" stroke:none;fill-rule:nonzero;fill:rgb(92.941176%,10.980392%,14.117647%);fill-opacity:1;" />
<path d="M 164.402344 130.339844 C 164.402344 142.855469 154.253906 153.003906 141.734375 153.003906 C 129.21875 153.003906 119.070312 142.855469 119.070312 130.339844 C 119.070312 117.820312 129.21875 107.671875 141.734375 107.671875 C 154.253906 107.671875 164.402344 117.820312 164.402344 130.339844 Z M 164.402344 130.339844 " style=" stroke:none;fill-rule:nonzero;fill:rgb(92.941176%,10.980392%,14.117647%);fill-opacity:1;" />
<path d="M 141.734375 328.667969 C 144.773438 328.667969 151.855469 316.765625 152.921875 294.667969 L 130.550781 294.667969 C 131.613281 316.765625 138.699219 328.667969 141.734375 328.667969 Z M 141.734375 328.667969 " style=" stroke:none;fill-rule:nonzero;fill:rgb(100%,85.490196%,26.666667%);fill-opacity:1;" />
<path d="M 141.734375 164.339844 C 160.511719 164.339844 175.734375 149.117188 175.734375 130.339844 C 175.734375 111.5625 160.511719 96.339844 141.734375 96.339844 C 122.957031 96.339844 107.738281 111.5625 107.738281 130.339844 C 107.753906 149.109375 122.964844 164.320312 141.734375 164.339844 Z M 141.734375 107.671875 C 154.253906 107.671875 164.402344 117.820312 164.402344 130.339844 C 164.402344 142.859375 154.253906 153.007812 141.734375 153.007812 C 129.21875 153.007812 119.070312 142.859375 119.070312 130.339844 C 119.070312 117.820312 129.21875 107.671875 141.734375 107.671875 Z M 141.734375 107.671875 " style=" stroke:none;fill-rule:nonzero;fill:rgb(13.72549%,12.156863%,12.54902%);fill-opacity:1;" />
<path d="M 5.738281 260.667969 L 85.496094 260.667969 C 91.550781 269.429688 99.074219 277.078125 107.738281 283.273438 L 107.738281 289 C 107.738281 292.128906 110.273438 294.667969 113.402344 294.667969 L 119.210938 294.667969 C 120.289062 318.03125 127.964844 340 141.734375 340 C 155.503906 340 163.183594 318.03125 164.261719 294.667969 L 170.066406 294.667969 C 173.199219 294.667969 175.734375 292.128906 175.734375 289 L 175.734375 283.273438 C 184.394531 277.074219 191.917969 269.429688 197.976562 260.667969 L 277.730469 260.667969 C 280.863281 260.667969 283.398438 258.132812 283.398438 255.003906 C 283.289062 218.78125 260.296875 186.585938 226.070312 174.730469 C 226.472656 169.375 226.734375 164 226.734375 158.671875 C 226.734375 115.425781 213.964844 74.808594 192.472656 49.308594 C 192.199219 48.433594 191.71875 47.640625 191.074219 46.992188 L 145.742188 1.660156 C 143.527344 -0.554688 139.941406 -0.554688 137.730469 1.660156 L 92.398438 46.992188 C 91.75 47.640625 91.269531 48.433594 90.996094 49.308594 C 69.503906 74.808594 56.738281 115.425781 56.738281 158.671875 C 56.738281 163.980469 57 169.34375 57.394531 174.675781 C 23.082031 186.445312 0.046875 218.726562 0.0742188 255.003906 C 0.0742188 258.132812 2.609375 260.667969 5.738281 260.667969 Z M 141.734375 328.667969 C 138.699219 328.667969 131.613281 316.765625 130.550781 294.667969 L 152.921875 294.667969 C 151.855469 316.765625 144.773438 328.667969 141.734375 328.667969 Z M 164.402344 280.386719 L 164.402344 283.335938 L 119.070312 283.335938 L 119.070312 260.667969 L 164.402344 260.667969 Z M 217.207031 221.28125 C 218.136719 218.402344 219.003906 215.472656 219.808594 212.496094 C 219.859375 212.308594 219.917969 212.132812 219.96875 211.929688 C 220.800781 208.769531 221.542969 205.542969 222.234375 202.296875 C 222.445312 201.300781 222.621094 200.292969 222.800781 199.28125 C 223.253906 196.960938 223.667969 194.617188 224.046875 192.257812 C 224.226562 191.09375 224.402344 189.9375 224.570312 188.769531 C 224.6875 187.945312 224.835938 187.132812 224.941406 186.308594 C 251.367188 196.585938 269.589844 221.070312 271.84375 249.335938 L 205.199219 249.335938 C 206.554688 246.902344 207.835938 244.382812 209.078125 241.804688 C 209.40625 241.113281 209.710938 240.386719 210.035156 239.683594 C 210.996094 237.601562 211.925781 235.480469 212.8125 233.308594 C 213.203125 232.351562 213.582031 231.378906 213.945312 230.402344 C 214.746094 228.332031 215.5 226.226562 216.210938 224.085938 C 216.574219 223.152344 216.902344 222.226562 217.207031 221.28125 Z M 141.734375 13.6875 L 167.722656 39.675781 L 115.75 39.675781 Z M 101.253906 54.78125 C 101.683594 54.300781 102.03125 53.75 102.273438 53.148438 L 104.414062 51.007812 L 179.054688 51.007812 L 181.195312 53.148438 C 181.441406 53.75 181.785156 54.300781 182.21875 54.78125 C 202.996094 78.09375 215.398438 116.933594 215.398438 158.671875 C 215.398438 165.144531 215.082031 171.707031 214.464844 178.199219 C 212.523438 204.339844 204.269531 229.617188 190.40625 251.863281 C 186.253906 258.167969 181.324219 263.925781 175.734375 269 L 175.734375 255.003906 C 175.734375 251.871094 173.199219 249.335938 170.070312 249.335938 L 113.40625 249.335938 C 110.273438 249.335938 107.738281 251.871094 107.738281 255.003906 L 107.738281 269 C 102.148438 263.917969 97.21875 258.15625 93.066406 251.847656 C 91.464844 249.453125 89.925781 246.949219 88.457031 244.339844 C 77.496094 223.859375 70.875 201.339844 69.007812 178.1875 C 68.390625 171.707031 68.074219 165.144531 68.074219 158.671875 C 68.070312 116.933594 80.476562 78.09375 101.253906 54.78125 Z M 32.964844 202.921875 C 40.238281 195.671875 48.933594 190.011719 58.503906 186.300781 C 58.625 187.183594 58.777344 188.046875 58.902344 188.925781 C 59.054688 189.992188 59.214844 191.042969 59.378906 192.097656 C 59.769531 194.585938 60.210938 197.050781 60.6875 199.464844 C 60.867188 200.378906 61.03125 201.296875 61.21875 202.195312 C 61.917969 205.496094 62.664062 208.757812 63.515625 211.953125 C 63.515625 212.050781 63.570312 212.140625 63.59375 212.238281 C 64.410156 215.300781 65.292969 218.304688 66.269531 221.269531 C 66.566406 222.199219 66.890625 223.113281 67.207031 224.035156 C 67.941406 226.179688 68.707031 228.292969 69.503906 230.371094 C 69.882812 231.351562 70.261719 232.324219 70.636719 233.289062 C 71.519531 235.453125 72.445312 237.566406 73.40625 239.644531 C 73.730469 240.355469 74.035156 241.078125 74.375 241.777344 C 75.609375 244.355469 76.890625 246.878906 78.246094 249.308594 L 11.621094 249.308594 C 12.949219 231.789062 20.527344 215.328125 32.964844 202.921875 Z M 32.964844 202.921875 " style=" stroke:none;fill-rule:nonzero;fill:rgb(13.72549%,12.156863%,12.54902%);fill-opacity:1;" />
<path d="M 141.734375 96.339844 C 122.957031 96.339844 107.738281 111.5625 107.738281 130.339844 C 107.738281 149.117188 122.957031 164.339844 141.734375 164.339844 C 160.511719 164.339844 175.734375 149.117188 175.734375 130.339844 C 175.714844 111.570312 160.503906 96.359375 141.734375 96.339844 Z M 141.734375 153.003906 C 129.21875 153.003906 119.070312 142.855469 119.070312 130.339844 C 119.070312 117.820312 129.21875 107.671875 141.734375 107.671875 C 154.253906 107.671875 164.402344 117.820312 164.402344 130.339844 C 164.402344 142.855469 154.253906 153.003906 141.734375 153.003906 Z M 141.734375 153.003906 " style=" stroke:none;fill-rule:nonzero;fill:rgb(13.72549%,12.156863%,12.54902%);fill-opacity:1;" />
<path d="M 226.070312 174.730469 C 226.472656 169.375 226.734375 164 226.734375 158.671875 C 226.734375 115.425781 213.964844 74.808594 192.472656 49.308594 C 192.199219 48.433594 191.71875 47.640625 191.074219 46.992188 L 145.742188 1.660156 C 143.527344 -0.554688 139.941406 -0.554688 137.730469 1.660156 L 92.398438 46.992188 C 91.75 47.640625 91.269531 48.433594 90.996094 49.308594 C 69.503906 74.808594 56.738281 115.425781 56.738281 158.671875 C 56.738281 163.980469 57 169.34375 57.394531 174.675781 C 23.082031 186.445312 0.046875 218.726562 0.0742188 255.003906 C 0.0742188 258.132812 2.609375 260.667969 5.738281 260.667969 L 85.496094 260.667969 C 91.550781 269.429688 99.074219 277.078125 107.738281 283.273438 L 107.738281 289 C 107.738281 292.128906 110.273438 294.667969 113.402344 294.667969 L 119.210938 294.667969 C 120.289062 318.03125 127.964844 340 141.734375 340 C 155.503906 340 163.183594 318.03125 164.261719 294.667969 L 170.066406 294.667969 C 173.199219 294.667969 175.734375 292.128906 175.734375 289 L 175.734375 283.273438 C 184.394531 277.074219 191.917969 269.429688 197.976562 260.667969 L 277.730469 260.667969 C 280.863281 260.667969 283.398438 258.132812 283.398438 255.003906 C 283.289062 218.78125 260.296875 186.585938 226.070312 174.730469 Z M 141.734375 13.6875 L 167.722656 39.675781 L 115.75 39.675781 Z M 11.621094 249.335938 C 12.945312 231.804688 20.519531 215.335938 32.96875 202.921875 C 40.238281 195.675781 48.933594 190.015625 58.507812 186.304688 C 58.625 187.1875 58.777344 188.046875 58.902344 188.925781 C 59.054688 189.992188 59.214844 191.046875 59.378906 192.101562 C 59.769531 194.585938 60.210938 197.050781 60.6875 199.464844 C 60.867188 200.378906 61.035156 201.296875 61.222656 202.199219 C 61.917969 205.496094 62.667969 208.757812 63.515625 211.957031 C 63.515625 212.050781 63.574219 212.140625 63.59375 212.238281 C 64.410156 215.304688 65.292969 218.308594 66.269531 221.269531 C 66.570312 222.199219 66.894531 223.113281 67.210938 224.035156 C 67.941406 226.183594 68.707031 228.292969 69.503906 230.371094 C 69.882812 231.351562 70.265625 232.324219 70.636719 233.289062 C 71.519531 235.453125 72.445312 237.566406 73.410156 239.648438 C 73.730469 240.355469 74.039062 241.082031 74.378906 241.777344 C 75.613281 244.355469 76.894531 246.878906 78.246094 249.308594 Z M 141.734375 328.667969 C 138.699219 328.667969 131.613281 316.765625 130.550781 294.667969 L 152.921875 294.667969 C 151.855469 316.765625 144.773438 328.667969 141.734375 328.667969 Z M 164.402344 283.335938 L 119.070312 283.335938 L 119.070312 260.667969 L 164.402344 260.667969 Z M 175.734375 269 L 175.734375 255.003906 C 175.734375 251.871094 173.199219 249.335938 170.066406 249.335938 L 113.402344 249.335938 C 110.273438 249.335938 107.738281 251.871094 107.738281 255.003906 L 107.738281 269 C 102.148438 263.917969 97.21875 258.15625 93.066406 251.847656 C 91.460938 249.453125 89.925781 246.949219 88.453125 244.339844 C 77.496094 223.859375 70.875 201.339844 69.007812 178.1875 C 68.390625 171.707031 68.070312 165.144531 68.070312 158.671875 C 68.070312 116.933594 80.476562 78.09375 101.253906 54.78125 C 101.6875 54.300781 102.03125 53.75 102.273438 53.148438 L 104.417969 51.007812 L 179.054688 51.007812 L 181.199219 53.148438 C 181.441406 53.75 181.785156 54.300781 182.21875 54.78125 C 202.996094 78.09375 215.402344 116.933594 215.402344 158.671875 C 215.402344 165.144531 215.082031 171.707031 214.464844 178.199219 C 212.527344 204.339844 204.269531 229.617188 190.40625 251.863281 C 186.253906 258.167969 181.324219 263.925781 175.734375 269 Z M 205.199219 249.335938 C 206.554688 246.90625 207.835938 244.382812 209.074219 241.804688 C 209.40625 241.113281 209.710938 240.386719 210.035156 239.6875 C 210.996094 237.601562 211.925781 235.480469 212.808594 233.3125 C 213.199219 232.355469 213.582031 231.378906 213.941406 230.40625 C 214.742188 228.335938 215.5 226.230469 216.210938 224.085938 C 216.527344 223.152344 216.855469 222.226562 217.160156 221.28125 C 218.089844 218.402344 218.957031 215.476562 219.761719 212.5 C 219.8125 212.3125 219.871094 212.136719 219.921875 211.933594 C 220.753906 208.769531 221.496094 205.546875 222.1875 202.300781 C 222.398438 201.300781 222.574219 200.292969 222.753906 199.285156 C 223.207031 196.960938 223.625 194.621094 224 192.257812 C 224.183594 191.097656 224.359375 189.941406 224.523438 188.773438 C 224.640625 187.945312 224.789062 187.136719 224.898438 186.308594 C 251.339844 196.574219 269.578125 221.0625 271.84375 249.335938 Z M 205.199219 249.335938 " style=" stroke:none;fill-rule:nonzero;fill:rgb(13.72549%,12.156863%,12.54902%);fill-opacity:1;" />
</g>
</svg>